#!OML:ASF H:\GeneralSubjects\Female5\Project 1\Capture day 1\Session 1\Female5.ASF
:FULLY-SPECIFIED
:DEGREES
662
root 16.3218 16.1116 3.43141 -169.38 0.274267 -179.308
lowerback 9.96156 2.0134 0.961437
upperback -9.32422 3.8445 1.72189
thorax -16.1639 2.07268 0.41801
lowerneck -14.7201 8.50652 12.7664
upperneck 30.4504 9.41067 -6.95933
head 13.8096 4.10563 -3.51187
rclavicle 9.59136e-015 2.22639e-014
rhumerus -57.0643 9.14193 -77.789
rradius 33.7259
rwrist -10.2798
rhand -25.8411 -17.4881
rfingers 7.12502
rthumb 0.699252 -47.4667
lclavicle 9.59136e-015 2.22639e-014
lhumerus -44.9602 2.13346 66.392
lradius 30.2824
lwrist -9.44156
lhand -29.0269 28.2915
lfingers 7.12502
lthumb -2.37767 58.258
rfemur -17.9416 0.583196 14.9075
rtibia 26.6805
rfoot -24.8072 -17.7686
rtoes -11.0482
lfemur -13.2603 -16.3878 -19.1519
ltibia 15.6496
lfoot -15.3017 -13.3231
ltoes -10.6694
663
root 16.1855 16.1505 3.43783 -169.224 0.228714 -179.285
lowerback 9.81186 2.08236 0.568352
upperback -9.33016 3.82862 1.51101
thorax -16.0807 2.09126 0.411447
lowerneck -14.8847 8.4107 13.0263
upperneck 30.5598 9.12758 -6.83871
head 13.8695 4.02646 -3.55584
rclavicle -1.34677e-014 -1.59028e-015
rhumerus -57.1591 8.73672 -77.8908
rradius 34.0542
rwrist -10.6233
rhand -25.9139 -17.4991
rfingers 7.12502
rthumb 0.628928 -47.4779
lclavicle -1.34677e-014 -1.59028e-015
lhumerus -44.715 1.97966 65.8251
lradius 30.5672
lwrist -9.32328
lhand -30.0677 28.5253
lfingers 7.12502
lthumb -3.38282 58.4782
rfemur -18.8994 -0.612113 17.6355
rtibia 27.7552
rfoot -22.6074 -15.3903
rtoes -18.2708
lfemur -13.1319 -16.5177 -19.6475
ltibia 15.0593
lfoot -15.3396 -13.0923
ltoes -10.8008
664
root 16.055 16.1835 3.44121 -169.109 0.143993 -179.282
lowerback 9.80093 2.04743 0.0653954
upperback -9.39133 3.68463 1.42082
thorax -16.1725 2.07563 0.623138
lowerneck -15.1088 8.4696 13.2374
upperneck 30.8734 9.10142 -6.83103
head 14.069 4.02699 -3.59742
rclavicle 1.59525e-014 -2.38542e-015
rhumerus -57.2744 8.62329 -77.9518
rradius 34.2355
rwrist -10.5202
rhand -25.9147 -17.3864
rfingers 7.12502
rthumb 0.628153 -47.3652
lclavicle 1.59525e-014 -2.38542e-015
lhumerus -46.0156 1.40303 65.5163
lradius 32.1506
lwrist -8.7293
lhand -30.6325 28.8253
lfingers 7.12502
lthumb -3.92825 58.7689
rfemur -19.6645 -1.28164 20.2683
rtibia 28.5056
rfoot -20.3581 -12.3133
rtoes -24.6962
lfemur -12.9299 -16.865 -20.2178
ltibia 14.5047
lfoot -15.4877 -12.8665
ltoes -10.3268
665
root 15.9296 16.2106 3.43867 -169.009 0.0105625 -179.302
lowerback 9.7004 1.79162 -0.663144
upperback -9.39926 3.24835 1.67532
thorax -16.1695 1.98302 1.4245
lowerneck -14.9269 8.61127 12.9932
upperneck 30.8014 9.41303 -6.88711
head 14.0233 4.12229 -3.52629
rclavicle -4.47266e-015 -3.57812e-014
rhumerus -57.1066 9.48594 -77.9457
rradius 34.245
rwrist -10.2033
rhand -25.8089 -17.2061
rfingers 7.12502
rthumb 0.730299 -47.1846
lclavicle -4.47266e-015 -3.57812e-014
lhumerus -46.4686 2.51428 65.0807
lradius 32.097
lwrist -9.1443
lhand -30.2194 28.763
lfingers 7.12502
lthumb -3.5293 58.7135
rfemur -20.1972 -1.61768 22.7513
rtibia 28.847
rfoot -18.3959 -8.55136
rtoes -29.8479
lfemur -12.7679 -17.1879 -20.7816
ltibia 14.0209
lfoot -15.6515 -12.4763
ltoes -10.5907
666
root 15.8109 16.2341 3.43126 -168.876 -0.189414 -179.123
lowerback 9.48505 1.99966 -1.22798
upperback -9.38413 2.22411 2.40331
thorax -16.0401 1.09941 2.9682
lowerneck -14.3813 9.03191 11.9909
upperneck 30.4082 10.4566 -7.13117
head 13.8022 4.42676 -3.2759
rclavicle -5.36719e-015 4.45278e-014
rhumerus -56.6513 12.1425 -78.0442
rradius 34.3243
rwrist -10.355
rhand -25.8854 -17.2527
rfingers 7.12502
rthumb 0.656433 -47.2314
lclavicle -5.36719e-015 4.45278e-014
lhumerus -47.2552 5.06453 64.7181
lradius 31.8408
lwrist -9.73281
lhand -29.3344 28.6681
lfingers 7.12502
lthumb -2.67462 58.6311
rfemur -20.583 -1.65438 25.3158
rtibia 28.8618
rfoot -16.8918 -4.87197
rtoes -35.0291
lfemur -12.7264 -17.2853 -21.0017
ltibia 13.5848
lfoot -15.5938 -11.9863
ltoes -11.7688
667
root 15.6979 16.2532 3.41828 -168.718 -0.360814 -178.912
lowerback 9.18871 2.61928 -0.46425
upperback -9.48318 3.06956 1.24365
thorax -15.8881 1.31842 1.03594
lowerneck -15.0205 8.32657 13.1593
upperneck 30.5662 8.90945 -6.77467
head 13.8803 3.95027 -3.58915
rclavicle 2.32081e-014 2.0276e-014
rhumerus -57.4307 8.87765 -77.9884
rradius 34.4029
rwrist -9.65563
rhand -25.9287 -17.1357
rfingers 7.12502
rthumb 0.614599 -47.1146
lclavicle 2.32081e-014 2.0276e-014
lhumerus -44.7804 2.07607 64.8599
lradius 30.688
lwrist -9.55981
lhand -28.5722 28.3219
lfingers 7.12502
lthumb -1.9385 58.2928
rfemur -20.783 -1.28729 27.6797
rtibia 28.5375
rfoot -15.7545 -1.41256
rtoes -38.3172
lfemur -12.594 -17.6452 -21.2046
ltibia 13.0627
lfoot -15.8353 -11.5111
ltoes -12.5649
